<?xml version="1.0" encoding="UTF-8" standalone="no"?>
<!-- Created with Inkscape (http://www.inkscape.org/) -->

<svg
   xmlns:svg="http://www.w3.org/2000/svg"
   xmlns="http://www.w3.org/2000/svg"
   version="1.2"
   width="612"
   height="792"
   viewBox="0 0 612 792"
   id="Layer_1"
   xml:space="preserve"><defs
   id="defs7" />
    
    <path
   d="m 230.85,290.8 53.8,-9.1 32.55,-1.45 57.5,0.9 10.7,0.85 c 2.934,0.267 5.883,0.583 8.85,0.95 2.934,0.333 5.867,0.683 8.8,1.05 2.9,0.367 5.8,0.75 8.7,1.15 2.867,0.367 5.75,0.783 8.65,1.25 2.899,0.434 5.783,0.883 8.649,1.35 2.866,0.467 5.733,0.95 8.601,1.45 2.833,0.5 5.684,1.033 8.55,1.6 2.866,0.534 5.733,1.083 8.6,1.65 2.833,0.566 5.684,1.167 8.55,1.8 2.801,0.6 5.634,1.233 8.5,1.9 2.834,0.633 5.684,1.3 8.551,2 2.833,0.667 5.684,1.367 8.55,2.1 l 9.35,2.3 c 1.333,0.3 2.634,0.583 3.9,0.85 1.266,0.267 2.466,0.5 3.6,0.7 1.101,0.2 2.184,0.383 3.25,0.55 1.067,0.167 2.101,0.317 3.101,0.45 0.967,0.1 1.949,0.2 2.949,0.3 0.967,0.067 1.934,0.133 2.9,0.2 1.166,0.066 2.316,0.15 3.45,0.25 1.134,0.066 2.25,0.167 3.35,0.3 1.067,0.1 2.15,0.217 3.25,0.35 1.067,0.133 2.116,0.3 3.15,0.5 1.033,0.167 2.066,0.35 3.1,0.55 1,0.2 2.017,0.417 3.05,0.65 1,0.233 2.018,0.483 3.051,0.75 1,0.267 2.016,0.566 3.05,0.9 1,0.3 2.033,0.633 3.1,1 1.034,0.333 2.083,0.7 3.15,1.1 1.033,0.4 2.1,0.816 3.2,1.25 1.1,0.433 2.199,0.9 3.3,1.4 1.1,0.466 2.25,0.983 3.45,1.55 1.166,0.533 2.35,1.083 3.55,1.65 1.2,0.6 2.45,1.217 3.75,1.85 l 3.899,2 c 2.566,1.333 5.051,2.65 7.45,3.95 2.4,1.3 4.717,2.583 6.95,3.85 2.233,1.233 4.383,2.45 6.45,3.65 3.1,1.767 6.05,3.533 8.85,5.3 2.767,1.767 5.4,3.5 7.9,5.2 4.966,3.367 9.466,6.733 13.5,10.1 4,3.366 7.683,6.816 11.05,10.35 1.033,1.067 2.066,2.184 3.1,3.35 1,1.133 1.967,2.283 2.9,3.45 0.934,1.133 1.85,2.3 2.75,3.5 0.867,1.167 1.717,2.333 2.55,3.5 0.8,1.167 1.567,2.35 2.3,3.55 0.734,1.167 1.45,2.35 2.15,3.55 0.633,1.133 1.25,2.283 1.85,3.45 0.601,1.167 1.15,2.317 1.65,3.45 0.5,1.1 0.95,2.2 1.35,3.3 0.4,1.1 0.768,2.184 1.101,3.25 0.3,1.033 0.566,2.05 0.8,3.05 0.2,1 0.367,1.983 0.5,2.95 l 0.15,1.449 c 0.033,0.467 0.05,0.867 0.05,1.2 0,0.333 -0.034,0.667 -0.101,1 -0.066,0.3 -0.166,0.583 -0.3,0.851 -0.134,0.266 -0.3,0.55 -0.5,0.85 -0.267,0.3 -0.55,0.617 -0.85,0.95 -0.333,0.3 -0.717,0.667 -1.15,1.1 l -1.55,1.351 c -2.334,2.066 -4.95,4.033 -7.85,5.899 -2.9,1.866 -6.051,3.65 -9.45,5.351 -3.434,1.633 -7.184,3.217 -11.25,4.75 -4.067,1.5 -8.417,2.916 -13.05,4.25 -4.667,1.3 -9.684,2.533 -15.051,3.699 -5.366,1.167 -11.05,2.268 -17.05,3.301 -6,1 -12.384,1.934 -19.149,2.8 -6.801,0.866 -13.934,1.667 -21.4,2.399 l -35.1,2.65 -22.15,0.9 -58.451,0.45 -5.1,4.5 c -0.866,0.734 -1.784,1.518 -2.75,2.351 -0.967,0.8 -1.967,1.616 -3,2.45 -1.067,0.833 -2.167,1.684 -3.3,2.55 -1.134,0.866 -2.283,1.733 -3.45,2.6 -1.167,0.867 -2.351,1.717 -3.55,2.55 -1.2,0.867 -2.4,1.717 -3.601,2.551 -1.2,0.8 -2.384,1.6 -3.55,2.399 -1.2,0.8 -2.367,1.567 -3.5,2.3 -1.166,0.7 -2.3,1.384 -3.4,2.051 -1.1,0.666 -2.149,1.3 -3.149,1.899 -1,0.567 -1.95,1.083 -2.851,1.55 -0.934,0.467 -1.783,0.9 -2.55,1.301 -3.134,1.434 -5.95,2.149 -8.45,2.149 h -0.5 c -2.633,-0.134 -4.866,-1.066 -6.699,-2.8 -1.834,-1.767 -3.234,-4.3 -4.2,-7.6 -0.967,-3.334 -1.467,-7.417 -1.5,-12.25 l 0.25,-8.15 c 0.033,-0.533 0.083,-0.983 0.149,-1.35 0.066,-0.367 0.134,-0.65 0.2,-0.851 0.2,-0.566 0.284,-1 0.25,-1.3 -0.033,-0.3 -0.3,-0.5 -0.8,-0.6 -0.267,-0.066 -0.617,-0.117 -1.05,-0.15 -0.467,-0.066 -1,-0.1 -1.601,-0.1 l -5.35,-0.051 c -1.2,0 -2.483,-0.016 -3.85,-0.05 -1.4,-0.033 -2.867,-0.083 -4.4,-0.149 l -42.4,-3.551 -40.75,-5.55 -49.85,-10 -35.3,-8 -11.7,-1.5 -52.65,-1.25 -7.55,0.4 c -1.2,0.1 -2.367,0.2 -3.5,0.3 -1.133,0.1 -2.233,0.217 -3.3,0.35 -1.1,0.134 -2.167,0.283 -3.2,0.45 -1.033,0.167 -2.066,0.333 -3.1,0.5 -1,0.167 -1.983,0.366 -2.95,0.601 -1,0.199 -1.983,0.416 -2.95,0.649 -1,0.2 -1.966,0.434 -2.9,0.7 -0.967,0.267 -1.917,0.533 -2.85,0.8 -1,0.267 -1.966,0.567 -2.9,0.9 L 70,424.05 c -0.833,0.267 -1.567,0.534 -2.2,0.8 -0.667,0.234 -1.283,0.484 -1.85,0.75 -0.567,0.234 -1.067,0.467 -1.5,0.7 -0.467,0.233 -0.9,0.483 -1.3,0.75 -0.4,0.267 -0.767,0.534 -1.1,0.8 -0.333,0.268 -0.65,0.566 -0.95,0.9 -0.333,0.3 -0.633,0.633 -0.9,1 -1.6,1.8 -3.167,3.584 -4.7,5.35 -1.567,1.768 -3.1,3.5 -4.6,5.2 -1.5,1.7 -2.983,3.366 -4.45,5 -1.467,1.601 -2.917,3.184 -4.35,4.75 -1.434,1.534 -2.85,3.05 -4.25,4.55 -1.434,1.5 -2.833,2.95 -4.2,4.351 -2.066,2.1 -4.1,4.149 -6.1,6.149 -2.033,2 -4.033,3.917 -6,5.75 -1.933,1.834 -3.867,3.617 -5.8,5.351 -1.934,1.733 -3.833,3.399 -5.7,5 -1.866,1.566 -3.733,3.083 -5.6,4.55 -1.867,1.467 -3.7,2.883 -5.5,4.25 -1.8,1.367 -3.617,2.684 -5.45,3.95 -1.833,1.233 -3.633,2.433 -5.4,3.6 -1.8,1.134 -3.6,2.233 -5.4,3.3 -1.833,1.033 -3.634,2.033 -5.4,3 -1.8,0.967 -3.616,1.884 -5.45,2.75 -1.833,0.9 -3.65,1.75 -5.45,2.551 -4.933,2.133 -8.183,3.199 -9.75,3.199 -0.466,0 -0.783,-0.083 -0.95,-0.25 -0.134,-0.133 -0.184,-0.3 -0.15,-0.5 -0.033,-0.066 0.017,-0.199 0.15,-0.399 0.066,-0.2 0.2,-0.434 0.4,-0.7 l 3.6,-4.75 c 2.667,-3.233 5.033,-6.617 7.1,-10.15 2.1,-3.533 3.917,-7.217 5.45,-11.05 1.5,-3.833 2.75,-7.85 3.75,-12.05 0.967,-4.2 1.684,-8.584 2.15,-13.15 l 2.2,-13.75 c 0.133,-0.5 0.267,-0.949 0.4,-1.35 0.167,-0.434 0.333,-0.85 0.5,-1.25 0.133,-0.4 0.3,-0.783 0.5,-1.15 0.167,-0.366 0.35,-0.717 0.55,-1.05 0.167,-0.333 0.367,-0.649 0.6,-0.95 0.2,-0.333 0.434,-0.649 0.7,-0.949 0.2,-0.301 0.433,-0.601 0.7,-0.9 0.267,-0.299 0.55,-0.584 0.85,-0.85 0.267,-0.268 0.55,-0.533 0.85,-0.801 l 2.5,-2.35 c 0.566,-0.6 0.934,-1.05 1.1,-1.35 0.167,-0.301 0.167,-0.5 0,-0.601 -0.2,-0.1 -0.534,-0.149 -1,-0.149 h -0.1 c -0.6,-0.033 -1.316,-0.351 -2.15,-0.95 -0.434,-0.333 -0.85,-0.7 -1.25,-1.101 -0.434,-0.399 -0.867,-0.85 -1.3,-1.35 -0.433,-0.5 -0.85,-1.017 -1.25,-1.55 -0.4,-0.534 -0.767,-1.083 -1.1,-1.65 -0.333,-0.6 -0.634,-1.167 -0.9,-1.7 -0.267,-0.566 -0.483,-1.1 -0.65,-1.6 -0.1,-0.4 -0.216,-0.783 -0.35,-1.15 -0.133,-0.333 -0.283,-0.649 -0.45,-0.949 -0.167,-0.301 -0.35,-0.601 -0.55,-0.9 -0.2,-0.3 -0.417,-0.566 -0.65,-0.8 -0.267,-0.3 -0.566,-0.583 -0.9,-0.851 -0.333,-0.266 -0.684,-0.55 -1.05,-0.85 -0.4,-0.267 -0.85,-0.566 -1.35,-0.9 -0.5,-0.333 -1.034,-0.666 -1.6,-1 l -4,-2.8 c -0.5,-0.433 -0.867,-0.8 -1.1,-1.1 -0.267,-0.333 -0.367,-0.583 -0.3,-0.75 0.167,-0.534 0.7,-1.116 1.6,-1.75 0.433,-0.333 0.933,-0.667 1.5,-1 0.6,-0.333 1.267,-0.684 2,-1.05 0.7,-0.367 1.483,-0.734 2.35,-1.101 0.833,-0.366 1.717,-0.733 2.65,-1.1 0.933,-0.4 1.917,-0.784 2.95,-1.15 1,-0.366 2.05,-0.733 3.15,-1.1 1.1,-0.366 2.217,-0.717 3.35,-1.05 1.133,-0.334 2.3,-0.667 3.5,-1 1.167,-0.334 2.35,-0.634 3.55,-0.9 1.167,-0.3 2.35,-0.584 3.55,-0.85 l 20.95,-1.9 25.65,-0.75 9.35,-8.9 c 2.667,-2.567 5.4,-5.1 8.2,-7.6 2.767,-2.533 5.6,-5 8.5,-7.4 2.867,-2.434 5.783,-4.833 8.75,-7.2 3,-2.4 6.017,-4.733 9.05,-7 3.033,-2.267 6.133,-4.5 9.3,-6.7 3.133,-2.2 6.283,-4.35 9.45,-6.45 3.167,-2.1 6.383,-4.15 9.65,-6.15 3.267,-2.034 6.533,-4 9.8,-5.9 3.267,-1.9 6.583,-3.75 9.95,-5.55 3.3,-1.8 6.633,-3.533 10,-5.2 3.333,-1.7 6.683,-3.317 10.05,-4.85 3.367,-1.567 6.75,-3.067 10.15,-4.5 l 31.85,-12 32.45,-9.05 z"
   id="path3"
   style="fill:#010101;fill-rule:evenodd" />
    
</svg>