<?xml version="1.0" encoding="utf-8"?>
<!-- Generator: Adobe Illustrator 15.0.2, SVG Export Plug-In . SVG Version: 6.00 Build 0)  -->
<!DOCTYPE svg PUBLIC "-//W3C//DTD SVG 1.1//EN" "http://www.w3.org/Graphics/SVG/1.1/DTD/svg11.dtd">
<svg version="1.1"
	 id="Layer_1" xmlns:dc="http://purl.org/dc/elements/1.1/" xmlns:rdf="http://www.w3.org/1999/02/22-rdf-syntax-ns#" xmlns:cc="http://creativecommons.org/ns#"
	 xmlns="http://www.w3.org/2000/svg" xmlns:xlink="http://www.w3.org/1999/xlink" x="0px" y="0px" width="206px" height="501px"
	 viewBox="0 0 206 501" enable-background="new 0 0 206 501" xml:space="preserve">
<title>Energy: wind turbine 1</title>
<desc  xmlns:ian_image_library="http://ian.umces.edu/imagelibrary/">
	<ian_image_library:title>Energy: wind turbine 1</ian_image_library:title>
	<ian_image_library:descr>Illustration of a wind turbine</ian_image_library:descr>
	<ian_image_library:scene>
		<ian_image_library:contains>
			symbol,vector,illustration,development,infrastructure,energy,hydro,power,wind-powered,electrical,generators,electricity,wind,turbine
			</ian_image_library:contains>
		<ian_image_library:when>2011-03-23</ian_image_library:when>
	</ian_image_library:scene>
</desc>
<path stroke="#00233D" stroke-width="0.1" d="M84.031,130.084c0,0,8.319-6.473,12.068-8.992c3.747-2.521,17.284-6.77,18.525-5.979
	c1.242,0.793,3.507,6.812,2.651,8.437s-13.567,8.716-15.888,9.707c-2.318,0.988-8.265,2.56-8.265,2.56L84.031,130.084z"/>
<path stroke="#00233D" stroke-width="0.1" d="M86.287,134.1c0,0-14.897,359.309-10.055,362.255c4.842,2.945,7.07,3.694,14.72,3.694
	c7.651,0,10.699-0.872,14.3-3.778c3.602-2.907-8.179-358.652-8.179-358.652L86.287,134.1z"/>
<path stroke="#00233D" stroke-width="0.1" stroke-miterlimit="10" d="M84.596,145.235c0,0,7.465-1.626,11.975-1.904
	c5.029-0.31,12.117-7.556,16.301-10.826c1.162-0.911,5.261-10.579,4.405-8.954s-13.567,8.716-15.888,9.707
	c-2.318,0.988-8.265,2.56-8.265,2.56L84.596,145.235z"/>
<path stroke="#00233D" stroke-width="0.1" d="M44.316,1.043c0.071-1.563,2.854-0.814,2.854-0.814s36.279,95.619,38.155,100.019
	c1.874,4.398,2.485,11.935,3.044,14.965c0.556,3.025-3.652,6.284-3.528,9.23c0.123,2.946,3.686,6.204,3.686,6.204
	s-1.325,0.785-3.612,1.808c-2.283,1.018-3.344,2.929-3.344,2.929s0.029-3.503-0.801-7.481c-0.829-3.979-3.159-7.809-7.096-17.99
	c-1.971-5.091-10.25-33.678-17.095-59.625C49.734,24.345,44.251,2.607,44.316,1.043z"/>
<path stroke="#00233D" stroke-width="0.1" d="M90.926,143.428l-0.437-3.534l3.004-2.813l2.797,1.873
	c0,0,49.979,17.684,58.862,20.699c8.88,3.012,48.148,15.99,49.113,16.845c0.965,0.856,0.104,2.495,0.104,2.495
	s-59.323-11.287-67.676-13.528c-8.348-2.239-29.248-9.526-31.516-10.626c-2.268-1.097-5.194-4.396-5.194-4.396
	s-3.1-5.078-4.671-6.272C93.737,142.975,90.926,143.428,90.926,143.428z"/>
<path stroke="#00233D" stroke-width="0.1" d="M78.673,138.682c-0.308,0.617,0.132,4.329-2.479,5.779
	c-1.279,0.862-2.328-0.765-8.71,2.09c-6.382,2.852-15.399,14.705-27.101,29.153c-11.7,14.448-38.66,54.873-39.665,57.833
	c-1.006,2.96-0.934,4.047,0.612,2.986c1.548-1.061,61.645-70.979,67.388-76.426c5.74-5.442,10.002-11.391,11.373-12.708
	c1.373-1.319,4.592-2.692,4.882-2.971c0.292-0.281-3.916-0.699-4.405-1.65C80.076,141.817,78.976,138.074,78.673,138.682z"/>
<path stroke="#00233D" stroke-width="0.1" d="M77.749,143.758c-1.015-1.333-1.402-3.511-0.451-6.068
	c0.948-2.559,4.945-7.063,7.495-8.418c2.547-1.35,4.975-1.195,7.792,0.509c2.813,1.701,4.911,7.31,2.462,11.218
	c-2.45,3.906-5.474,4.524-7.688,5.207c-2.217,0.682-7.717-0.782-7.717-0.782S78.759,145.095,77.749,143.758z"/>
</svg>
