<?xml version="1.0" encoding="UTF-8" standalone="no"?>
				<svg xmlns:rdf="http://www.w3.org/1999/02/22-rdf-syntax-ns#" xmlns="http://www.w3.org/2000/svg" height="199px" width="501px" xmlns:cc="http://creativecommons.org/ns#" xmlns:xlink="http://www.w3.org/1999/xlink" xmlns:dc="http://purl.org/dc/elements/1.1/">
				<title>Coastline 3D: bay with barrier island</title>
				<desc xmlns:ian_image_library="http://ian.umces.edu/imagelibrary/">
					  <ian_image_library:title>Coastline 3D: bay with barrier island</ian_image_library:title>
					  <ian_image_library:descr>Illustration of a bay with barrier island.</ian_image_library:descr>
					  <ian_image_library:scene>
						<ian_image_library:contains>symbol,vector,illustration,coastal,marine,freshwater,watershed,3D,river mouth,marsh,barrier island,estuary,beach,ocean</ian_image_library:contains>
						<ian_image_library:when>2010-03-09</ian_image_library:when> 
					  </ian_image_library:scene>
				   </desc>
					<metadata
						id="metadata-iil-a186220fbc98a7941d3d3f254f8fdc67">
					  <rdf:RDF>
					  <cc:Work
						 rdf:about="">
						<dc:format>image/svg+xml</dc:format>
						<dc:type
						   rdf:resource="http://purl.org/dc/dcmitype/StillImage" />
						<cc:license
						   rdf:resource="http://creativecommons.org/licenses/by-sa/3.0/" />
						<dc:title>Coastline 3D: bay with barrier island</dc:title>
						<dc:date>2010-03-09</dc:date>
						<dc:creator>
							<cc:Agent>
								<dc:title>Jane Thomas</dc:title>
							</cc:Agent>	
						</dc:creator>   
						<dc:rights>
						  <cc:Agent>
							<dc:title>Jane Thomas, Integration and Application Network</dc:title>
						  </cc:Agent>
						</dc:rights>
						<dc:publisher>
						  <cc:Agent>
							<dc:title>Integration and Application Network</dc:title>
						  </cc:Agent>
						</dc:publisher>
						<dc:identifier>http://ian.umces.edu/imagelibrary/displayimage-6901.html</dc:identifier>
						<dc:source>http://ian.umces.edu/imagelibrary/displayimage-6901.html</dc:source>
						<dc:language>en-US</dc:language>
						<dc:subject>
						  <rdf:Bag>
							<rdf:li>symbol,vector,illustration,coastal,marine,freshwater,watershed,3D,river mouth,marsh,barrier island,estuary,beach,ocean</rdf:li>
						  </rdf:Bag>
						</dc:subject>
						<dc:coverage></dc:coverage>
						<dc:description>Illustration of a bay with barrier island.</dc:description>
						<dc:contributor>
						  <cc:Agent>
							<dc:title></dc:title>
						  </cc:Agent>
						</dc:contributor>
					  </cc:Work>
					  <cc:License
						 rdf:about="http://creativecommons.org/licenses/by-sa/3.0/">
						<cc:permits
						   rdf:resource="http://creativecommons.org/ns#Reproduction" />
						<cc:permits
						   rdf:resource="http://creativecommons.org/ns#Distribution" />
						<cc:requires
						   rdf:resource="http://creativecommons.org/ns#Notice" />
						<cc:requires
						   rdf:resource="http://creativecommons.org/ns#Attribution" />
						<cc:permits
						   rdf:resource="http://creativecommons.org/ns#DerivativeWorks" />
						<cc:requires
						   rdf:resource="http://creativecommons.org/ns#ShareAlike" />
					  </cc:License>
					</rdf:RDF>
				  </metadata>
					
<defs>
		<pattern  x="-55.659" y="684.807" width="11.488" height="11.488" patternUnits="userSpaceOnUse" id="ian_symbols_822007ce7c7669e4c1a25c4a1d9f1854" viewBox="1 -12.488 11.488 11.488" overflow="visible">
		<g>
			<polygon fill="none" points="12.488,-12.488 12.488,-1 1,-1 1,-12.488 			"/>
			<path fill="#CAAF97" d="M12.06-12.488c-0.001,0.01-0.003,0.02-0.003,0.028c0,0.188,0.238,0.309,0.432,0.387v-0.415H12.06z"/>
			<path fill="#CAAF97" d="M1-12.073c0.041,0.024,0.081,0.046,0.111,0.063c0.126,0.071,0.316-0.029,0.316-0.174
				c0-0.079,0.083-0.195,0.146-0.304H1V-12.073z"/>
			<path fill="#CAAF97" d="M12.06-1h0.429v-0.244C12.298-1.214,12.081-1.1,12.06-1z"/>
			<path fill="#CAAF97" d="M1-1h0.574c0.055-0.052,0.095-0.1,0.059-0.13C1.554-1.193,1.269-1.186,1.127-1.242
				C1.091-1.256,1.047-1.256,1-1.244V-1z"/>
			<path fill="#CAAF97" d="M7.203-8.171C7.146-8.094,7.041-8.048,6.902-8.186c-0.14-0.139-0.2-0.47-0.115-0.549
				c0.086-0.079,0.362,0.068,0.419,0.166C7.264-8.47,7.261-8.248,7.203-8.171z"/>
			<path fill="#CAAF97" d="M10.29-11.797c0.021-0.118,0.108-0.237,0.325-0.184s0.448,0.362,0.398,0.503
				c-0.051,0.14-0.416,0.167-0.526,0.102C10.378-11.442,10.269-11.677,10.29-11.797z"/>
			<path fill="#CAAF97" d="M7.768-1.277c-0.071-0.05-0.131-0.141-0.06-0.256c0.07-0.115,0.304-0.16,0.383-0.085
				c0.08,0.074,0.035,0.306-0.025,0.354C8.006-1.219,7.839-1.227,7.768-1.277z"/>
			<path fill="#CAAF97" d="M10.068-1.531c-0.071-0.05-0.131-0.142-0.061-0.257c0.071-0.115,0.304-0.16,0.384-0.085
				c0.079,0.074,0.034,0.306-0.025,0.354C10.306-1.473,10.14-1.48,10.068-1.531z"/>
			<path fill="#CAAF97" d="M5.188-12.177c0.014-0.046,0.054-0.091,0.14-0.059c0.087,0.032,0.17,0.168,0.144,0.222
				c-0.025,0.055-0.176,0.049-0.219,0.017C5.21-12.029,5.174-12.129,5.188-12.177z"/>
			<path fill="#CAAF97" d="M9.579-9.357c-0.042-0.025-0.073-0.075-0.02-0.15c0.055-0.075,0.207-0.118,0.252-0.078
				C9.857-9.547,9.811-9.403,9.77-9.371C9.727-9.339,9.621-9.331,9.579-9.357z"/>
			<path fill="#CAAF97" d="M5.636-4.015c0.057,0,0.104,0.056,0.104,0.124S5.692-3.768,5.636-3.768c-0.058,0-0.104-0.055-0.104-0.123
				S5.578-4.015,5.636-4.015z"/>
			<path fill="#CAAF97" d="M1.167-6.356c0.058,0,0.104,0.055,0.104,0.124c0,0.067-0.047,0.123-0.104,0.123S1.063-6.165,1.063-6.232
				C1.063-6.302,1.109-6.356,1.167-6.356z"/>
			<path fill="#CAAF97" d="M10.709-1.853c0.058,0,0.104,0.056,0.104,0.124s-0.047,0.123-0.104,0.123
				c-0.057,0-0.104-0.055-0.104-0.123S10.652-1.853,10.709-1.853z"/>
			<path fill="#CAAF97" d="M10.98-5.486c0.058,0,0.104,0.055,0.104,0.123c0,0.069-0.046,0.124-0.104,0.124s-0.104-0.055-0.104-0.124
				C10.876-5.432,10.923-5.486,10.98-5.486z"/>
			<path fill="#CAAF97" d="M7.163-11.33c0.058,0,0.104,0.056,0.104,0.124c0,0.067-0.047,0.123-0.104,0.123
				c-0.057,0-0.104-0.056-0.104-0.123C7.06-11.274,7.106-11.33,7.163-11.33z"/>
			<path fill="#CAAF97" d="M2.871-10.735c0.059,0,0.104,0.056,0.104,0.125c0,0.067-0.046,0.123-0.104,0.123
				c-0.057,0-0.104-0.056-0.104-0.123C2.768-10.68,2.814-10.735,2.871-10.735z"/>
			<path fill="#CAAF97" d="M3.872-11.369c0.058,0,0.104,0.056,0.104,0.124s-0.047,0.123-0.104,0.123s-0.104-0.055-0.104-0.123
				S3.814-11.369,3.872-11.369z"/>
			<path fill="#CAAF97" d="M7.192-4.351c-0.155,0.09-0.338-0.018-0.386-0.145C6.759-4.624,7.012-4.858,6.972-4.998
				c-0.04-0.139,0.396-0.132,0.47,0.03C7.514-4.807,7.416-4.775,7.505-4.67S7.348-4.439,7.192-4.351z"/>
			<path fill="#CAAF97" d="M5.17-6.825C5.102-6.938,5.074-7.101,5.243-7.218s0.52-0.037,0.584,0.115
				c0.064,0.151-0.14,0.446-0.251,0.475C5.464-6.601,5.238-6.711,5.17-6.825z"/>
			<path fill="#CAAF97" d="M11.503-8.656c0.02-0.071,0.08-0.137,0.21-0.088c0.13,0.048,0.255,0.251,0.216,0.333
				S11.664-8.339,11.6-8.387C11.536-8.435,11.482-8.585,11.503-8.656z"/>
			<path fill="#CAAF97" d="M4.061-3.776c-0.088-0.006-0.17-0.068-0.112-0.259c0.058-0.189,0.307-0.418,0.408-0.389
				c0.101,0.028,0.093,0.336,0.035,0.437S4.148-3.771,4.061-3.776z"/>
			<path fill="#CAAF97" d="M10.225-10.603c0.008,0.048-0.033,0.096-0.091,0.104s-0.11-0.023-0.119-0.071
				c-0.007-0.05,0.033-0.096,0.092-0.105C10.163-10.684,10.217-10.651,10.225-10.603z"/>
			<path fill="#CAAF97" d="M10.652-8.015c-0.042-0.025-0.073-0.075-0.019-0.15c0.054-0.074,0.206-0.117,0.251-0.079
				c0.046,0.04,0,0.183-0.042,0.216C10.8-7.996,10.694-7.989,10.652-8.015z"/>
			<path fill="#CAAF97" d="M3.422-3.091C3.372-3.09,3.319-3.115,3.324-3.208C3.33-3.3,3.436-3.419,3.495-3.41
				c0.059,0.009,0.097,0.154,0.079,0.204C3.556-3.156,3.471-3.093,3.422-3.091z"/>
			<path fill="#CAAF97" d="M2.691-8.798c-0.173-0.046-0.227-0.251-0.17-0.376c0.057-0.124,0.401-0.112,0.472-0.239
				c0.069-0.126,0.374,0.187,0.312,0.353S3.15-8.941,3.139-8.804S2.865-8.752,2.691-8.798z"/>
			<path fill="#CAAF97" d="M1.668-9.607C1.57-9.619,1.478-9.688,1.529-9.88c0.051-0.192,0.312-0.413,0.425-0.377
				c0.112,0.035,0.122,0.353,0.064,0.452S1.765-9.596,1.668-9.607z"/>
			<path fill="#CAAF97" d="M11.739-9.04c-0.087-0.006-0.169-0.068-0.112-0.258c0.058-0.19,0.308-0.418,0.408-0.391
				c0.102,0.029,0.094,0.337,0.036,0.438C12.013-9.15,11.828-9.034,11.739-9.04z"/>
			<path fill="#CAAF97" d="M6.73-9.507c-0.082,0.031-0.183,0.009-0.21-0.188c-0.028-0.196,0.103-0.508,0.206-0.524
				c0.104-0.017,0.227,0.266,0.216,0.382C6.933-9.723,6.813-9.539,6.73-9.507z"/>
			<path fill="#CAAF97" d="M3.971-1.744c0.036-0.08,0.124-0.133,0.284-0.004c0.16,0.128,0.289,0.452,0.227,0.536
				C4.418-1.128,4.129-1.256,4.054-1.35C3.979-1.443,3.934-1.663,3.971-1.744z"/>
			<path fill="#CAAF97" d="M8.213-6.861C8.3-6.848,8.374-6.778,8.295-6.59C8.215-6.4,7.938-6.188,7.84-6.226
				C7.742-6.264,7.786-6.576,7.856-6.674C7.926-6.771,8.125-6.875,8.213-6.861z"/>
			<path fill="#CAAF97" d="M6.767-1.656C6.8-1.806,6.909-1.958,7.158-1.906c0.249,0.053,0.497,0.418,0.429,0.595
				C7.52-1.136,7.093-1.076,6.968-1.149C6.845-1.224,6.733-1.507,6.767-1.656z"/>
			<path fill="#CAAF97" d="M8.784-4.355c0.027-0.113,0.11-0.229,0.288-0.197c0.178,0.031,0.347,0.3,0.294,0.434
				c-0.054,0.134-0.363,0.188-0.45,0.137S8.756-4.243,8.784-4.355z"/>
			<path fill="#CAAF97" d="M6.243-11.188c0.032-0.128,0.127-0.262,0.329-0.226c0.203,0.036,0.395,0.341,0.333,0.494
				s-0.414,0.218-0.513,0.159C6.293-10.82,6.212-11.059,6.243-11.188z"/>
			<path fill="#CAAF97" d="M6.236-12.488c-0.011,0.087,0.039,0.227,0.101,0.263c0.065,0.04,0.297-0.003,0.338-0.104
				c0.017-0.042,0.004-0.102-0.026-0.158"/>
			<path fill="#CAAF97" d="M6.648-1C6.607-1.079,6.533-1.153,6.455-1.167C6.322-1.19,6.26-1.103,6.238-1.019
				C6.237-1.013,6.236-1.006,6.236-1"/>
			<path fill="#CAAF97" d="M10.733-10.07c0.021-0.085,0.083-0.173,0.217-0.148s0.26,0.225,0.22,0.325
				c-0.041,0.102-0.273,0.145-0.339,0.104C10.766-9.827,10.712-9.985,10.733-10.07z"/>
			<path fill="#CAAF97" d="M2.971-1.675c0.014-0.047,0.054-0.091,0.14-0.06c0.087,0.033,0.169,0.169,0.144,0.223
				C3.228-1.457,3.077-1.464,3.035-1.495C2.993-1.527,2.958-1.628,2.971-1.675z"/>
			<path fill="#CAAF97" d="M1.763-5.95c-0.11-0.056-0.249-0.084-0.277-0.277C1.458-6.422,1.597-6.614,1.707-6.614
				s0.249,0,0.332,0.083s0.055,0.304,0,0.414C1.983-6.006,1.873-5.895,1.763-5.95z"/>
			<path fill="#CAAF97" d="M9.25-2.174C9.14-2.229,9.002-2.257,8.974-2.451C8.946-2.644,9.085-2.838,9.195-2.838
				s0.249,0,0.332,0.083s0.055,0.304,0,0.415C9.472-2.229,9.361-2.118,9.25-2.174z"/>
			<path fill="#CAAF97" d="M2.657-4.911c0.058,0,0.104,0.055,0.104,0.123c0,0.069-0.047,0.124-0.104,0.124S2.553-4.719,2.553-4.788
				C2.553-4.856,2.6-4.911,2.657-4.911z"/>
			<path fill="#CAAF97" d="M7.517-12.047c0.058,0,0.104,0.055,0.104,0.124c0,0.068-0.047,0.124-0.104,0.124
				s-0.104-0.056-0.104-0.124C7.413-11.992,7.459-12.047,7.517-12.047z"/>
			<path fill="#CAAF97" d="M6.804-12.16c0.058,0,0.104,0.055,0.104,0.124c0,0.067-0.047,0.123-0.104,0.123S6.7-11.969,6.7-12.036
				C6.7-12.105,6.746-12.16,6.804-12.16z"/>
			<path fill="#CAAF97" d="M4.918-8.652C5.055-8.57,5.03-8.331,4.936-8.202c-0.095,0.13-0.395,0.056-0.502,0.185
				c-0.106,0.129-0.265-0.275-0.15-0.45s0.178-0.105,0.237-0.258C4.579-8.878,4.781-8.735,4.918-8.652z"/>
			<path fill="#CAAF97" d="M9.975-6.959c0.107-0.105,0.206-0.146,0.213-0.045c0.007,0.102-0.029,0.237,0.087,0.252
				c0.116,0.014,0.193,0.05,0.167,0.156s-0.274,0.215-0.387,0.186c-0.11-0.029-0.087-0.146-0.199-0.213
				C9.744-6.689,9.865-6.853,9.975-6.959z"/>
			<path fill="#CAAF97" d="M7.969-10.21c0.021-0.071,0.081-0.137,0.211-0.088s0.255,0.251,0.216,0.333S8.13-9.893,8.066-9.939
				C8.002-9.988,7.949-10.139,7.969-10.21z"/>
			<path fill="#CAAF97" d="M6.302-8.241C6.273-8.197,6.197-8.182,6.04-8.294C5.885-8.407,5.743-8.64,5.795-8.682
				C5.848-8.723,6.122-8.584,6.197-8.51C6.273-8.436,6.33-8.285,6.302-8.241z"/>
			<path fill="#CAAF97" d="M3.903-10.318c0.058,0,0.104,0.055,0.104,0.123s-0.047,0.123-0.104,0.123S3.8-10.127,3.8-10.195
				S3.846-10.318,3.903-10.318z"/>
			<path fill="#CAAF97" d="M9.861-3.576c0.058,0,0.104,0.055,0.104,0.124c0,0.067-0.046,0.123-0.104,0.123S9.757-3.385,9.757-3.452
				C9.757-3.521,9.804-3.576,9.861-3.576z"/>
			<path fill="#CAAF97" d="M5.017-2.577C4.941-2.581,4.871-2.635,4.921-2.798c0.049-0.163,0.263-0.359,0.35-0.334
				c0.087,0.024,0.08,0.288,0.03,0.375C5.251-2.671,5.093-2.571,5.017-2.577z"/>
			<path fill="#CAAF97" d="M8.177-12.13c-0.007-0.075,0.035-0.152,0.204-0.129s0.396,0.204,0.385,0.294
				c-0.011,0.089-0.273,0.124-0.365,0.088C8.307-11.913,8.184-12.055,8.177-12.13z"/>
			<path fill="#CAAF97" d="M8.233-8.579c0.058,0,0.104,0.056,0.104,0.123c0,0.069-0.047,0.124-0.104,0.124
				c-0.057,0-0.104-0.055-0.104-0.124C8.13-8.523,8.177-8.579,8.233-8.579z"/>
			<path fill="#CAAF97" d="M9.123-6.181C9.073-6.18,9.021-6.205,9.025-6.298c0.006-0.092,0.111-0.21,0.171-0.201
				s0.097,0.154,0.079,0.204C9.257-6.245,9.172-6.182,9.123-6.181z"/>
			<path fill="#CAAF97" d="M11.837-1.214c-0.05,0.001-0.103-0.024-0.098-0.117c0.006-0.092,0.112-0.21,0.171-0.201
				c0.06,0.009,0.098,0.154,0.079,0.204C11.972-1.277,11.886-1.215,11.837-1.214z"/>
			<path fill="#CAAF97" d="M6.719-7.579C6.76-7.619,6.831-7.614,6.88-7.565c0.048,0.049,0.054,0.121,0.014,0.161
				C6.853-7.364,6.781-7.37,6.732-7.419C6.684-7.467,6.679-7.539,6.719-7.579z"/>
			<path fill="#CAAF97" d="M3.482-1C3.465-1.141,3.5-1.356,3.553-1.406C3.609-1.46,3.826-1.36,3.873-1.193
				C3.889-1.14,3.888-1.069,3.875-1"/>
			<path fill="#CAAF97" d="M3.875-12.488c-0.023,0.145-0.095,0.287-0.176,0.302c-0.12,0.021-0.186-0.132-0.212-0.273
				c-0.002-0.009-0.004-0.019-0.005-0.028"/>
			<path fill="#CAAF97" d="M4.636-5.801c0.099,0.115,0.132,0.217,0.03,0.216c-0.101,0-0.234-0.045-0.257,0.07
				C4.387-5.4,4.347-5.325,4.241-5.36C4.137-5.394,4.047-5.648,4.084-5.757c0.036-0.11,0.15-0.078,0.225-0.185
				C4.384-6.048,4.538-5.916,4.636-5.801z"/>
			<path fill="#CAAF97" d="M5.14-10.531c0.108-0.105,0.206-0.146,0.213-0.045s-0.028,0.237,0.087,0.252
				c0.116,0.014,0.194,0.049,0.167,0.156C5.58-10.061,5.332-9.954,5.221-9.982c-0.111-0.029-0.087-0.146-0.199-0.213
				C4.909-10.262,5.031-10.426,5.14-10.531z"/>
			<path fill="#CAAF97" d="M10.825-3.942c-0.096,0.013-0.201-0.03-0.199-0.227s0.197-0.471,0.314-0.465
				c0.116,0.007,0.203,0.307,0.172,0.417C11.082-4.107,10.921-3.955,10.825-3.942z"/>
			<path fill="#CAAF97" d="M2.82-7.244C2.841-7.33,2.903-7.418,3.037-7.394C3.17-7.37,3.297-7.169,3.256-7.068
				c-0.04,0.102-0.272,0.145-0.338,0.104C2.853-7.002,2.799-7.16,2.82-7.244z"/>
			<path fill="#CAAF97" d="M10.902-1.535c0.027-0.112,0.11-0.229,0.288-0.196c0.178,0.031,0.347,0.299,0.294,0.433
				c-0.055,0.135-0.363,0.189-0.45,0.138S10.874-1.422,10.902-1.535z"/>
			<path fill="#CAAF97" d="M1.154-9.438C1.089-9.493,1.027-9.582,1.067-9.673C1.106-9.765,1.288-9.769,1.363-9.69
				c0.074,0.077,0.073,0.275,0.032,0.308C1.354-9.352,1.22-9.383,1.154-9.438z"/>
			<path fill="#CAAF97" d="M1.739-8.373C1.675-8.43,1.613-8.519,1.653-8.609C1.692-8.7,1.873-8.705,1.948-8.626
				c0.075,0.077,0.074,0.274,0.033,0.308C1.94-8.287,1.805-8.318,1.739-8.373z"/>
			<path fill="#CAAF97" d="M1.459-2.313C1.349-2.368,1.21-2.396,1.183-2.59c-0.027-0.193,0.11-0.388,0.222-0.388
				c0.11,0,0.249,0,0.332,0.084c0.082,0.083,0.055,0.304,0,0.415C1.681-2.368,1.569-2.257,1.459-2.313z"/>
			<path fill="#CAAF97" d="M12.488-3.735c-0.027-0.002-0.055-0.003-0.083,0.001c-0.193,0.028-0.222,0.166-0.276,0.277
				c-0.056,0.11,0.055,0.221,0.166,0.276c0.05,0.024,0.122,0.043,0.193,0.05"/>
			<path fill="#CAAF97" d="M1-3.131c0.088,0.007,0.176-0.004,0.222-0.05c0.083-0.083,0.083-0.222,0.083-0.332
				c0-0.095-0.143-0.209-0.305-0.223"/>
			<path fill="#CAAF97" d="M9.409-7.809C9.299-7.864,9.16-7.892,9.133-8.085c-0.028-0.194,0.11-0.388,0.221-0.388
				c0.111,0,0.249,0,0.332,0.083s0.056,0.305,0,0.415C9.631-7.864,9.52-7.753,9.409-7.809z"/>
			<path fill="#CAAF97" d="M11.7-11.523c0.058,0,0.104,0.055,0.104,0.123s-0.047,0.123-0.104,0.123s-0.104-0.055-0.104-0.123
				S11.643-11.523,11.7-11.523z"/>
			<path fill="#CAAF97" d="M7.187-7.949c0.058,0,0.104,0.056,0.104,0.125c0,0.067-0.047,0.123-0.104,0.123S7.083-7.757,7.083-7.824
				C7.083-7.894,7.129-7.949,7.187-7.949z"/>
			<path fill="#CAAF97" d="M2.707-2.777c0.108-0.105,0.207-0.146,0.214-0.046S2.892-2.585,3.008-2.571
				c0.115,0.015,0.193,0.049,0.166,0.156C3.147-2.308,2.899-2.201,2.788-2.229c-0.11-0.028-0.087-0.145-0.199-0.213
				C2.478-2.509,2.599-2.672,2.707-2.777z"/>
			<path fill="#CAAF97" d="M4.915-4.393c0.013-0.047,0.053-0.091,0.14-0.059c0.086,0.032,0.169,0.167,0.143,0.222
				C5.172-4.176,5.021-4.182,4.979-4.214C4.937-4.245,4.901-4.346,4.915-4.393z"/>
			<path fill="#CAAF97" d="M5.832-2.022c0.059,0,0.104,0.055,0.104,0.123S5.891-1.776,5.832-1.776c-0.057,0-0.104-0.055-0.104-0.123
				S5.775-2.022,5.832-2.022z"/>
			<path fill="#CAAF97" d="M9.281-1.631c0.057,0,0.104,0.056,0.104,0.124S9.338-1.383,9.281-1.383c-0.058,0-0.104-0.056-0.104-0.124
				S9.224-1.631,9.281-1.631z"/>
			<path fill="#CAAF97" d="M2.41-11.797c0.058,0,0.104,0.056,0.104,0.124S2.468-11.55,2.41-11.55s-0.104-0.055-0.104-0.123
				S2.353-11.797,2.41-11.797z"/>
			<path fill="#CAAF97" d="M7.097-3.243C7.189-3.334,7.274-3.368,7.28-3.282c0.006,0.087-0.025,0.204,0.074,0.216
				c0.1,0.013,0.166,0.043,0.144,0.135C7.475-2.84,7.262-2.748,7.166-2.772c-0.095-0.025-0.074-0.125-0.17-0.183
				C6.899-3.013,7.004-3.152,7.097-3.243z"/>
			<path fill="#CAAF97" d="M9.577-11.147c0.104,0.078,0.151,0.155,0.066,0.175s-0.205,0.007-0.201,0.107
				c0.003,0.101-0.017,0.171-0.111,0.162c-0.094-0.008-0.218-0.204-0.208-0.303c0.01-0.098,0.11-0.093,0.153-0.197
				C9.318-11.307,9.473-11.226,9.577-11.147z"/>
			<path fill="#CAAF97" d="M11.289-12.42c0.058,0,0.104,0.056,0.104,0.123c0,0.069-0.047,0.124-0.104,0.124
				s-0.104-0.055-0.104-0.124C11.186-12.364,11.231-12.42,11.289-12.42z"/>
			<path fill="#CAAF97" d="M11.204-8.255c0.058,0,0.104,0.056,0.104,0.124s-0.047,0.124-0.104,0.124S11.1-8.063,11.1-8.131
				S11.146-8.255,11.204-8.255z"/>
			<path fill="#CAAF97" d="M11.506-5.105c0.059,0,0.104,0.055,0.104,0.123c0,0.067-0.046,0.123-0.104,0.123
				c-0.057,0-0.104-0.056-0.104-0.123C11.402-5.051,11.449-5.105,11.506-5.105z"/>
		</g>
	</pattern>
</defs>
<polygon fill="#BBD6E3" points="271.407,7.596 116.248,0.036 113.883,0.991 0.002,69.97 5.72,80.795 383.046,86.13 500,21.992 
	500,7.596 "/>
<linearGradient id="ian_symbols_447ca310eb416de4b1609b1e7b5758fe" gradientUnits="userSpaceOnUse" x1="198.6001" y1="69.9658" x2="198.6001" y2="197.9253">
	<stop  offset="0.0056" style="stop-color:#9FC3D6"/>
	<stop  offset="1" style="stop-color:#84B2CA"/>
</linearGradient>
<path fill="url(#ian_symbols_447ca310eb416de4b1609b1e7b5758fe)" d="M387.994,72.259c-4.475-0.128-8.313-2.293-8.313-2.293s-5.099,2.343-9.054,2.293
	c-4.336-0.056-8.243-2.293-8.243-2.293s-3.853,2.352-8.956,2.293c-4.748-0.056-8.316-2.293-8.316-2.293s-4.338,2.279-9.025,2.291
	c-4.531,0.012-8.416-2.291-8.416-2.291s-4.571,2.279-9.129,2.291c-4.111,0.012-8.267-2.291-8.267-2.291s-4.166,2.305-9.06,2.293
	c-4.646-0.014-8.386-2.293-8.386-2.293s-5.313,2.279-9.177,2.291c-3.469,0.012-8.264-2.291-8.264-2.291s-3.47,2.41-8.956,2.293
	c-4.599-0.1-8.238-2.293-8.238-2.293s-4.828,2.281-8.956,2.291c-4.771,0.012-8.491-2.291-8.491-2.291s-3.05,2.178-8.535,2.293
	c-5.491,0.084-8.884-2.293-8.884-2.293s-3.911,2.533-8.904,2.293c-4.994-0.243-7.23-2.293-7.23-2.293s-3.486,2.377-8.752,2.291
	c-5.265-0.086-8.436-2.291-8.436-2.291s-4.726,2.436-9.206,2.293c-4.475-0.128-8.314-2.293-8.314-2.293s-5.098,2.343-9.053,2.293
	c-4.336-0.056-8.242-2.293-8.242-2.293s-3.852,2.352-8.957,2.293c-4.75-0.056-8.316-2.293-8.316-2.293s-4.34,2.279-9.026,2.291
	c-4.532,0.012-8.417-2.291-8.417-2.291s-4.569,2.279-9.125,2.291c-4.115,0.012-8.268-2.291-8.268-2.291s-4.168,2.305-9.062,2.293
	c-4.642-0.014-8.384-2.293-8.384-2.293s-5.314,2.279-9.176,2.291c-3.471,0.012-8.267-2.291-8.267-2.291s-3.467,2.41-8.953,2.293
	c-4.599-0.1-8.239-2.293-8.239-2.293s-4.83,2.281-8.957,2.291c-4.771,0.012-8.491-2.291-8.491-2.291s-3.05,2.178-8.535,2.293
	c-5.49,0.084-8.885-2.293-8.885-2.293s-3.911,2.533-8.904,2.293C2.237,72.016,0,69.966,0,69.966v127.959h397.2l-0.002-127.959
	C397.198,69.966,392.473,72.401,387.994,72.259z"/>
<linearGradient id="ian_symbols_4cf4f55d7de6cfb46505f0737961701d" gradientUnits="userSpaceOnUse" x1="14.7114" y1="30.6084" x2="278.8906" y2="30.6084">
	<stop  offset="0.0056" style="stop-color:#AEC6A8"/>
	<stop  offset="1" style="stop-color:#E7F2DA"/>
</linearGradient>
<path fill="url(#ian_symbols_4cf4f55d7de6cfb46505f0737961701d)" d="M206.897,2.985c-10.853-1.288-45.806-1.472-54.084-1.656C144.535,1.146,115.515,0,115.515,0
	L14.711,61.06c17.824-1.753,46.963-4.453,59.011-4.61c9.947-0.131,37.716,3.944,45.754,4.562c8.038,0.618,27.879,0.343,42.658-8.037
	c7.164-4.061,53.967-30.508,33.972-31.951c-5.113-0.371-19.987,0.455-36.792-1.381c-14.498-1.583-16.284-5.117-31.273-5.519
	c16.854-1.682,16.937,1.183,31.733,0.919c15.175-0.27,31.105-4.381,44.148-4.598c25.761-0.427,38.22,14.827,73.083-2.119
	c0.572-0.278,1.214-0.513,1.886-0.731c0,0-12.757-1.851-21.587-2.219C248.474,5.009,217.752,4.273,206.897,2.985z"/>
<linearGradient id="ian_symbols_adb22fecb9b15cb431be79e5c294b471" gradientUnits="userSpaceOnUse" x1="355.5508" y1="37.1543" x2="451.7715" y2="37.1543">
	<stop  offset="0" style="stop-color:#F8F0B9"/>
	<stop  offset="1" style="stop-color:#F8F0B9"/>
</linearGradient>
<path fill="url(#ian_symbols_adb22fecb9b15cb431be79e5c294b471)" d="M450.704,13.611c-7.818-4.598-12.876-4.139-45.991,9.197c-13.576,5.468-50.412,28.951-49.13,33.657
	c1.281,4.706,16.059,7.832,21.5,6.594c5.593-1.271,35.212-23.46,41.431-26.913C426.79,31.549,457.885,17.834,450.704,13.611z"/>
<linearGradient id="ian_symbols_a9c56d0c11f80c748d80ce7099bc60d5" gradientUnits="userSpaceOnUse" x1="420.2432" y1="53.644" x2="476.9609" y2="151.8821">
	<stop  offset="0.0056" style="stop-color:#84B2CA"/>
	<stop  offset="1" style="stop-color:#84B2CA"/>
</linearGradient>
<path fill="url(#ian_symbols_a9c56d0c11f80c748d80ce7099bc60d5)" d="M493.579,14.175c-4.396,2.381-7.372,1.79-7.372,1.79s-1.747,3.842-6.293,6.5
	c-4.548,2.656-8.401,2.417-8.401,2.417s-2.775,4.532-6.683,6.734c-3.892,2.212-8.297,2.353-8.297,2.353s-3.146,4.646-6.55,6.656
	c-3.736,2.2-8.238,2.314-8.238,2.314s-2.071,4.009-6.467,6.606c-4.088,2.416-8.295,2.354-8.295,2.354s-2.531,4.199-6.528,6.64
	c-3.868,2.361-8.387,2.408-8.387,2.408s-2.725,4.318-6.614,6.691c-3.514,2.145-8.256,2.328-8.256,2.328l0.006,127.964L500,135.315
	V7.596C500,7.596,497.971,11.792,493.579,14.175z"/>
<linearGradient id="ian_symbols_c44175bc3a182014cde91614c92db25f" gradientUnits="userSpaceOnUse" x1="0" y1="146.4478" x2="397.2041" y2="146.4478">
	<stop  offset="0" style="stop-color:#A78B6F"/>
	<stop  offset="0.2635" style="stop-color:#C3AD88"/>
	<stop  offset="0.6284" style="stop-color:#E6DAA9"/>
	<stop  offset="0.8315" style="stop-color:#F8F0B9"/>
	<stop  offset="1" style="stop-color:#F8F0B9"/>
</linearGradient>
<path fill="url(#ian_symbols_c44175bc3a182014cde91614c92db25f)" d="M359.034,104.105c-24.672-4.274-26.914,10.271-39.335,25.263
	c-13.734,16.579-20.771,22.266-50.317,29.217c-27.594,6.492-66.55,11.363-95.766,0c-28.62-11.129-50.439-36.385-61.409-43.852
	C85.071,96.265,23.955,114.741,0,94.966V197.93h397.204v-13.889C379.138,149.47,382.228,108.124,359.034,104.105z"/>
<path fill="#F8F0B9" d="M397.204,197.93v-13.889c3.616-3.059,11.95-7.833,16.116-10.003c4.167-2.17,16.06-5.122,20.834-7.465
	c4.773-2.344,15.451-12.24,21.18-15.104c5.729-2.865,19.445-8.941,24.133-11.632s15.277-12.153,20.529-14.236v9.721L397.204,197.93z
	"/>
<path display="none" fill="none" stroke="#ED1C24" stroke-width="0.5436" stroke-linecap="round" d="M228.674,84.807
	c4.333-9.667,15.671-17.909,35.667-19c18.333-1,34.306,16.741,42,27c5,6.667,18.193,9.498,27,3.333c6.667-4.667,5.333-14-1-23
	s-25.019-22.728-66-24c-53.08-1.648-98.668,54.448-132.667,47.057s-49-30.724-62.666-32.057"/>
</svg>
